<svg width="103" height="52" viewBox="0 0 103 52" fill="none" xmlns="http://www.w3.org/2000/svg">
<g clip-path="url(#clip0_168_884)">
<mask id="mask0_168_884" style="mask-type:luminance" maskUnits="userSpaceOnUse" x="-1" y="0" width="80" height="52">
<path d="M-0.00292969 0H78.9971V52H-0.00292969V0Z" fill="white"/>
</mask>
<g mask="url(#mask0_168_884)">
<path d="M67.554 23.6233C66.4508 23.8732 65.3269 24.0211 64.1963 24.0649C63.0826 24.153 61.9934 23.9667 60.7888 23.9545C60.1732 23.9755 59.5656 24.1007 58.9921 24.325C58.4203 24.5572 57.8998 24.8991 57.4601 25.3315C57.0406 25.7674 56.7047 26.2763 56.4688 26.8329C56.2538 27.3825 56.1615 27.9722 56.1983 28.5611C56.3192 28.0129 56.535 27.4901 56.8359 27.0159C57.1122 26.5507 57.4717 26.1399 57.8964 25.804C58.7017 25.1041 59.7461 24.7404 60.8129 24.7884C61.8913 24.7338 63.0864 24.8598 64.2526 24.7019C65.4101 24.5475 66.5292 24.1819 67.554 23.6233Z" fill="#222222"/>
<path d="M64.8594 41.0269C62.3176 39.4506 59.4517 38.468 56.4758 38.1527C55.4701 38.0158 54.4501 38.0206 53.4458 38.1669C52.9128 38.2603 52.4033 38.4574 51.9464 38.7468C51.4825 39.0519 51.1015 39.4669 50.8375 39.9547C50.3796 40.898 50.1682 41.9416 50.2234 42.9884C50.2226 44.0017 50.3531 45.0108 50.6118 45.9907C50.936 46.9981 51.5575 47.8844 52.3947 48.5337C53.9924 49.7782 55.8821 50.5953 57.8848 50.9076C59.8429 51.2237 61.8334 51.2899 63.8082 51.1046L58.0187 50.1814C56.1486 49.8769 54.3869 49.1022 52.9 47.9304C52.1864 47.3749 51.6591 46.6158 51.3885 45.754C51.1614 44.8465 51.0509 43.9138 51.0596 42.9785C50.9999 42.073 51.1684 41.1669 51.5499 40.343C51.7589 39.9669 52.0525 39.6442 52.4075 39.4004C52.7627 39.1567 53.1696 38.9983 53.5964 38.938C54.5245 38.7993 55.4675 38.7899 56.3984 38.91C59.2692 39.1904 69.8776 45.0305 77.2673 45.754L64.8594 41.0269Z" fill="#222222"/>
<path d="M56.6841 27.8946C57.4859 27.9024 58.2845 27.9969 59.0659 28.1763C59.8225 28.3408 60.5909 28.6625 60.8223 29.2727C60.9287 29.5958 60.9451 29.9417 60.8693 30.2733C60.7936 30.605 60.6289 30.9097 60.3927 31.155C59.8537 31.6894 59.2175 32.1165 58.5183 32.413C57.1027 33.2007 55.6952 33.9547 54.2717 34.7704C53.5456 35.2023 52.9169 35.7794 52.4248 36.4654C51.9656 37.1582 51.694 37.9578 51.6362 38.7865C51.8456 38.0196 52.2272 37.3103 52.7521 36.7124C53.2632 36.128 53.8906 35.656 54.5944 35.3263C56.0032 34.5918 57.4722 33.877 58.9087 33.1507C59.6842 32.7798 60.3804 32.2627 60.9591 31.6279C61.2692 31.2742 61.4749 30.8416 61.5533 30.3783C61.6318 29.915 61.58 29.439 61.4035 29.0033C61.181 28.5834 60.8166 28.2557 60.3749 28.0783C59.9781 27.9168 59.5588 27.8171 59.1316 27.7829C58.3149 27.6955 57.4895 27.7332 56.6841 27.8946Z" fill="#222222"/>
<path d="M57.4356 29.0387C56.7756 29.0257 56.1511 29.0336 55.5308 28.9977C54.9159 28.9955 54.3026 28.932 53.7002 28.8084C53.0882 28.7516 52.4836 28.6331 51.8956 28.4544C51.5922 28.3877 51.2929 28.3044 50.9987 28.2047C50.6958 28.1317 50.4149 27.9871 50.1797 27.783C50.3033 28.1041 50.5241 28.3788 50.8115 28.569C51.0906 28.7483 51.3796 28.9118 51.6772 29.0587C52.2893 29.3139 52.9259 29.5066 53.577 29.6336C54.2367 29.7002 54.9016 29.7013 55.5615 29.6365C56.2171 29.551 56.8519 29.3485 57.4356 29.0387Z" fill="#222222"/>
<path d="M44.2636 31.0667C45.4911 30.6574 46.6706 30.1163 47.7812 29.4531C48.9046 28.7425 49.8329 27.764 50.4821 26.6057C50.7999 26.0363 51.0873 25.4504 51.3428 24.8504C51.6581 24.2426 51.8702 23.5869 51.9709 22.9099C51.9923 22.5095 51.885 22.113 51.6647 21.7777C51.453 21.4658 51.1769 21.2026 50.8548 21.0062C50.2641 20.6916 49.6415 20.4406 48.9976 20.2575C48.4387 20.0751 47.9254 19.7755 47.4921 19.3788C47.0589 18.9822 46.7156 18.4976 46.4854 17.9577C46.2715 17.3696 46.0919 16.7697 45.9479 16.1608C45.902 16.0019 45.8521 15.8438 45.7958 15.6828C45.7319 15.4611 45.6001 15.2649 45.419 15.1217C45.2216 14.9962 44.9883 14.9394 44.7553 14.96C44.5783 14.9691 44.4022 14.9908 44.2283 15.0251C43.5483 15.173 42.9648 15.4589 42.3777 15.6201C41.8053 15.8002 41.1886 15.7823 40.6276 15.5696C40.0344 15.3472 39.4562 15.0872 38.8963 14.791C38.3195 14.5097 37.7411 14.2313 37.1562 13.9646C37.6954 14.3142 38.2411 14.6519 38.7883 14.987C39.3331 15.3415 39.8985 15.6639 40.4812 15.9522C41.117 16.2323 41.8274 16.295 42.5026 16.131C43.1618 15.9883 43.7601 15.7433 44.3446 15.657C44.619 15.6041 44.9829 15.5962 45.0298 15.6634C45.1552 15.8726 45.2403 16.1032 45.2807 16.3436C45.4155 16.9838 45.5888 17.6155 45.7996 18.2349C46.0577 18.8832 46.4516 19.4692 46.9548 19.9535C47.458 20.4379 48.059 20.8095 48.7176 21.0435C49.3119 21.1955 49.889 21.4068 50.4407 21.6742C50.6719 21.783 50.8683 21.9537 51.008 22.1671C51.1479 22.3805 51.2257 22.6284 51.2328 22.8833C51.1466 23.4739 50.9692 24.0476 50.7069 24.5839C50.4755 25.1682 50.2132 25.7397 49.9211 26.2963C49.3674 27.4133 48.5557 28.383 47.5529 29.1257C46.5101 29.8592 45.4101 30.5083 44.2636 31.0667Z" fill="#222222"/>
<path d="M45.8577 17.3618C45.685 17.4521 45.5282 17.5694 45.393 17.7096C45.3038 17.8397 45.2075 17.9649 45.1049 18.0848C45.0596 18.2357 45.0063 18.3841 44.9452 18.5293C44.933 18.6154 44.9182 18.702 44.901 18.7894C44.8969 18.8958 44.8989 19.0023 44.907 19.1084C45.0163 19.0982 45.124 19.0743 45.2273 19.0376C45.3109 18.9918 45.394 18.9432 45.4767 18.8919C45.6048 18.7621 45.726 18.6256 45.8398 18.4829C45.8973 18.3099 45.9456 18.134 45.9846 17.9559C46.0004 17.7498 45.9563 17.5435 45.8577 17.3618Z" fill="#222222"/>
<path d="M48.5107 20.7954C48.1856 20.9817 47.9233 21.1681 47.6529 21.3357C47.4094 21.5251 47.1454 21.6867 46.8656 21.8175C46.6199 22.0039 46.354 22.1621 46.0728 22.2895C45.9358 22.375 45.7944 22.4537 45.6492 22.5249C45.5068 22.6241 45.3535 22.6886 45.1963 22.7993C45.3696 22.8633 45.5502 22.9057 45.7339 22.9256C45.9153 22.9259 46.0965 22.9169 46.277 22.8987C46.6304 22.8145 46.9731 22.6912 47.299 22.531C47.5918 22.3166 47.8598 22.07 48.0978 21.7963C48.322 21.5051 48.4645 21.1597 48.5107 20.7954Z" fill="#222222"/>
<path d="M39.576 19.374C39.215 19.4037 38.87 19.5351 38.5811 19.753C38.3086 19.9849 38.0659 20.2497 37.8586 20.5412C37.7061 20.8645 37.5943 21.2055 37.5259 21.5563C37.5159 21.7341 37.5161 21.9124 37.5267 22.0903C37.557 22.2689 37.611 22.4426 37.687 22.6072C37.787 22.4472 37.8416 22.2953 37.9322 22.1528C37.9949 22.0096 38.0657 21.87 38.1444 21.7348C38.2572 21.46 38.4039 21.2001 38.581 20.9612C38.7016 20.6895 38.8557 20.4338 39.0394 20.1999C39.2019 19.9392 39.3851 19.6874 39.576 19.374Z" fill="#222222"/>
<path d="M36.0182 18.1123C35.8905 18.4148 35.7987 18.7311 35.7443 19.0547C35.7171 19.361 35.6798 19.6653 35.6328 19.9673C35.6504 20.2722 35.6578 20.5784 35.6553 20.8862L35.7119 21.3578C35.746 21.5241 35.7886 21.6885 35.8396 21.8504C35.9444 21.714 36.0375 21.5689 36.118 21.417L36.2951 20.9582C36.363 20.6441 36.4206 20.3271 36.468 20.007C36.4509 19.6841 36.4232 19.363 36.3852 19.0438C36.3217 18.7134 36.1972 18.3975 36.0182 18.1123Z" fill="#222222"/>
<path d="M36.3448 6.51685C37.104 6.87735 37.3079 7.72292 37.3887 8.46878C37.453 9.24799 37.4458 10.0315 37.3672 10.8094C37.3174 11.5643 37.1163 12.3016 36.7756 12.9775C36.4091 13.6259 35.8885 14.1744 35.2596 14.5748C34.5916 15.0396 33.9495 15.54 33.3358 16.0741C32.7271 16.6427 32.1958 17.2887 31.7558 17.9954C31.339 18.7078 31.0138 19.4697 30.7878 20.2631C30.5846 21.0517 30.497 21.8657 30.5281 22.6794C30.6569 21.895 30.8747 21.1278 31.1772 20.3925C31.4626 19.6661 31.8383 18.9783 32.2955 18.3455C32.7295 17.7067 33.2457 17.1276 33.8308 16.6229C34.4481 16.1297 35.0913 15.6697 35.7577 15.2448C36.4655 14.7454 37.0408 14.0819 37.434 13.3113C37.7884 12.5383 37.9831 11.7022 38.0066 10.8526C38.025 10.03 37.9499 9.20807 37.7828 8.40242C37.6967 7.99218 37.5405 7.5998 37.321 7.24245C37.1041 6.88167 36.7533 6.6209 36.3448 6.51685Z" fill="#222222"/>
<path d="M35.9072 7.52051C35.859 7.9349 35.7092 8.33105 35.471 8.67392C35.2329 9.0168 34.9137 9.29581 34.5417 9.48628C33.7924 9.86485 32.996 10.1425 32.1734 10.3119C31.3654 10.5389 30.5344 10.6748 29.696 10.717C28.8557 10.7586 27.9907 10.7163 27.0941 10.7892C26.1949 10.8791 25.3139 11.1012 24.4799 11.4483C23.6165 11.8029 22.8713 12.3937 22.3299 13.1526C21.854 13.9327 21.5911 14.8234 21.5671 15.7364C21.5552 16.6086 21.6297 17.4798 21.7894 18.3374C21.7922 17.4809 21.8544 16.6256 21.9755 15.7777C22.0671 14.9621 22.3708 14.1847 22.8564 13.5224C23.817 12.226 25.5381 11.7437 27.1751 11.6196C27.9975 11.5197 28.8633 11.5279 29.7452 11.4522C30.6306 11.3744 31.5046 11.198 32.3508 10.9264C33.2072 10.6822 34.0209 10.3084 34.7636 9.81802C35.1406 9.56993 35.445 9.22666 35.6459 8.82311C35.8467 8.41955 35.9369 7.97011 35.9072 7.52051Z" fill="#222222"/>
<path d="M29.937 22.5876C30.2438 22.8755 30.447 23.2563 30.5149 23.6709C30.613 24.0732 30.6733 24.5066 30.8125 24.948C31.1178 25.8132 31.592 26.6092 32.2078 27.2901C32.8681 27.9283 33.6498 28.4276 34.507 28.7589L35.7542 29.1442C36.1697 29.2551 36.5694 29.4182 36.9437 29.6297C36.6583 29.2833 36.3116 28.992 35.9211 28.7702L34.7631 28.1694C34.0203 27.8187 33.3558 27.3226 32.8092 26.7105C32.215 26.1444 31.7394 25.4664 31.4096 24.7158C31.2275 24.3527 31.0948 23.9387 30.8891 23.5304C30.8015 23.3177 30.6722 23.1248 30.5087 22.9629C30.3452 22.8009 30.1509 22.6733 29.937 22.5876Z" fill="#222222"/>
<path d="M37.1029 29.717C36.5339 29.5407 35.924 29.5454 35.3579 29.7306C35.0451 29.8227 34.755 29.9789 34.5064 30.1894C34.2577 30.4 34.0559 30.66 33.914 30.9529C33.7719 31.2459 33.6929 31.5651 33.682 31.8903C33.671 32.2155 33.7283 32.5394 33.8502 32.8411C33.9792 33.1658 34.1905 33.4512 34.4636 33.6696C34.7227 33.8721 35.0137 34.0305 35.3247 34.1381C36.4742 34.4005 37.6582 34.4788 38.8323 34.37C39.4027 34.3245 39.9713 34.268 40.5382 34.2006C41.1031 34.1029 41.6675 34.0218 42.2236 33.8769C41.6508 33.8331 41.0844 33.8327 40.5174 33.7916C39.9521 33.7818 39.388 33.7604 38.8249 33.7276C37.7336 33.7689 36.6424 33.6404 35.5905 33.3471C35.3658 33.3005 35.1541 33.2048 34.9705 33.0672C34.7871 32.9295 34.6363 32.7531 34.5289 32.5506C34.4343 32.3343 34.3845 32.1012 34.3824 31.8652C34.3804 31.6292 34.4263 31.3952 34.5173 31.1773C34.8511 30.2609 35.9749 29.7066 37.1029 29.717Z" fill="#222222"/>
<path d="M41.9608 32.5063C42.6586 33.7871 43.0696 35.2038 43.1651 36.6586C43.2686 38.0764 43.0353 39.4986 42.4841 40.8095C41.9328 42.1204 41.0792 43.283 39.9927 44.2028C39.4524 44.6798 38.8556 45.0892 38.2156 45.4217C37.5715 45.7762 36.8889 46.0564 36.1812 46.2569C36.9346 46.212 37.6773 46.0562 38.3852 45.7946C39.0962 45.5149 39.7703 45.1494 40.3925 44.7063C41.6613 43.8039 42.6526 42.5663 43.255 41.1326C43.8573 39.6988 44.047 38.1258 43.8024 36.5904C43.5947 35.0808 42.9553 33.6628 41.9608 32.5063Z" fill="#222222"/>
<path d="M36.4175 39.3716C36.9026 39.8544 37.39 40.293 37.8447 40.7554C38.3108 41.1359 38.664 41.6362 38.866 42.2023C39.0879 42.7524 39.1357 43.3571 39.0031 43.9351C38.96 44.2463 38.8804 44.5515 38.7659 44.8441C38.6619 45.1597 38.5411 45.4695 38.4038 45.7721C38.6757 45.5582 38.9192 45.3107 39.1286 45.0356C39.3302 44.7442 39.4968 44.4302 39.6254 44.1002C39.8577 43.3925 39.8669 42.6307 39.652 41.9176C39.346 41.2496 38.8629 40.6778 38.2548 40.2639C37.694 39.8706 37.0738 39.5693 36.4175 39.3716Z" fill="#222222"/>
<path d="M36.4022 39.1245C36.5073 39.8464 36.5121 40.5795 36.4162 41.3028C36.3613 41.9844 36.1448 42.6432 35.7848 43.2251C35.3662 43.7574 34.815 44.171 34.1861 44.4244C33.8723 44.6141 33.5496 44.7911 33.2179 44.9557C32.8968 45.1487 32.5575 45.3016 32.2241 45.4938C32.6063 45.4706 32.9864 45.419 33.3609 45.3395C33.7298 45.2438 34.0959 45.1327 34.4592 45.0062C34.8145 44.8564 35.1548 44.7024 35.5063 44.5148C35.8957 44.3186 36.232 44.0317 36.4866 43.6784C36.8652 42.956 37.0607 42.1522 37.0562 41.3371C37.0472 40.5534 36.8207 39.7876 36.4022 39.1245Z" fill="#222222"/>
<path d="M21.4623 18.4539C19.6935 20.638 18.8651 23.433 19.1586 26.2259C19.3322 27.6375 19.8436 28.9869 20.6494 30.1602C21.4722 31.2972 22.4588 32.3066 23.5773 33.1558C25.7807 34.8207 28.2058 36.1204 29.9349 38.152C30.8336 39.1271 31.4525 40.3257 31.7263 41.6219C32.0532 42.9352 31.8537 44.3239 31.1701 45.4926C31.5879 44.9344 31.8883 44.2975 32.0535 43.6206C32.2185 42.9436 32.2448 42.2403 32.1309 41.5528C31.9162 40.1538 31.3292 38.8379 30.431 37.7424C28.642 35.5469 26.1793 34.1633 24.0906 32.4974C23.0138 31.7212 22.0578 30.7907 21.2534 29.7361C20.4842 28.6708 19.9834 27.4364 19.7933 26.1372C19.4149 23.4595 20.0067 20.7349 21.4623 18.4539Z" fill="#222222"/>
<path d="M22.1577 12.4413C21.4156 12.0971 20.6079 11.9167 19.7896 11.9122C18.9713 11.9077 18.1616 12.0792 17.4158 12.4151C15.9067 13.0855 14.5906 14.1236 13.5885 15.4339C12.6087 16.7165 11.7051 18.0553 10.8824 19.4435C10.0284 20.8141 9.25671 22.2342 8.57144 23.6961C7.91353 25.1832 7.41107 26.7339 7.07203 28.3237C6.82397 29.8826 6.43734 31.4164 5.91671 32.9069C5.63819 33.6276 5.24931 34.3007 4.76393 34.9023C4.52164 35.2102 4.2613 35.5105 4.00148 35.8167L3.61346 36.2826C3.53017 36.3782 3.46479 36.488 3.42044 36.6065C3.37369 36.7492 3.38035 36.9038 3.43921 37.0419C3.54707 37.2582 3.71895 37.4363 3.93158 37.552C4.11857 37.6642 4.32216 37.7462 4.5348 37.795C4.93831 37.877 5.34978 37.9131 5.76143 37.9028C6.1559 37.8907 6.5504 37.9264 6.9363 38.0088C7.32709 38.0845 7.67649 38.3006 7.91833 38.6161C7.7061 38.2633 7.36784 38.0036 6.97158 37.8895C6.58229 37.7686 6.17912 37.698 5.77187 37.6792C5.38216 37.6601 4.9958 37.5977 4.61992 37.4932C4.44477 37.4394 4.27943 37.358 4.13024 37.2518C3.9938 37.1659 3.88633 37.0412 3.82176 36.8937C3.78464 36.7825 3.81938 36.7125 3.95016 36.5645L4.35176 36.1274C4.6239 35.8367 4.90234 35.5456 5.17013 35.2376C5.72104 34.617 6.17282 33.9155 6.50956 33.1575C7.0771 31.6414 7.50705 30.0776 7.79423 28.4847C8.1529 26.9529 8.66919 25.4622 9.33489 24.0363C9.97788 22.5894 10.7064 21.1819 11.5166 19.8212C12.2964 18.4418 13.1565 17.1089 14.0921 15.8296C14.9912 14.5483 16.1867 13.5022 17.5772 12.78C18.277 12.4142 19.0444 12.1954 19.8323 12.137C20.62 12.0788 21.4115 12.1823 22.1577 12.4413Z" fill="#222222"/>
<path d="M45.0146 34.4822C45.7637 34.9515 46.5902 35.2954 47.312 35.7234C48.0522 36.102 48.7183 36.6097 49.2794 37.2222C49.8717 37.7756 50.2939 38.4856 50.4968 39.2695C50.624 39.659 50.6837 40.0674 50.673 40.4769C50.68 40.9049 50.6122 41.3307 50.4723 41.7353C50.7656 41.3845 50.9736 40.9708 51.0803 40.5265C51.1747 40.069 51.1904 39.5988 51.1266 39.1359C50.9562 38.2058 50.5255 37.3427 49.8842 36.6463C49.2161 36.0146 48.44 35.5073 47.5926 35.1484C46.7594 34.8357 45.8951 34.6124 45.0146 34.4822Z" fill="#222222"/>
<path d="M50.5679 42.4973C49.2115 43.9178 47.6711 45.1511 45.9876 46.1648C44.3218 47.1868 42.5935 48.1592 40.8516 49.0229C39.9914 49.457 39.0892 49.8027 38.1589 50.0544C37.2337 50.2872 36.2802 50.3893 35.3264 50.3577C33.3895 50.2406 31.4757 49.8747 29.6324 49.2692L26.7755 48.4889C25.8183 48.2398 24.8643 48.0054 23.9271 47.7344C22.9925 47.4746 22.0769 47.1516 21.1864 46.7674C20.3022 46.3674 19.4468 45.9066 18.6266 45.3883L13.6159 42.2624C11.9047 41.2894 10.2759 40.1791 8.74561 38.9421C10.1752 40.3059 11.7306 41.5323 13.3909 42.6047L18.2839 45.9324C19.1214 46.4803 19.996 46.9695 20.9012 47.3966C21.8144 47.8084 22.7547 48.1577 23.7155 48.4419C24.6673 48.734 25.6244 48.9854 26.5706 49.2481L29.4053 50.0721C31.3227 50.6654 33.3087 51.009 35.3142 51.0945C36.3343 51.1109 37.3516 50.9848 38.3367 50.7194C39.3064 50.4405 40.2452 50.0637 41.1383 49.5948C42.8826 48.6531 44.5751 47.6191 46.2087 46.497C47.8561 45.3913 49.3259 44.0427 50.5679 42.4973Z" fill="#222222"/>
<path d="M16.9445 26.8956C16.1256 26.8198 15.3 26.9188 14.5223 27.1861C13.7526 27.4713 13.0145 27.8354 12.3201 28.2727C11.6711 28.7579 11.0534 29.2832 10.4707 29.8458C10.195 30.14 9.92703 30.4383 9.66294 30.7387C9.41987 31.0614 9.16114 31.3649 8.93994 31.7074C9.2924 31.5016 9.60737 31.257 9.94363 31.0373C10.2589 30.7956 10.5759 30.5578 10.8963 30.328C11.4982 29.8336 12.1308 29.3776 12.7901 28.9626C13.4056 28.5005 14.0676 28.1034 14.7653 27.7779C15.4662 27.4245 16.1951 27.1294 16.9445 26.8956Z" fill="#222222"/>
<path d="M16.155 25.2278C15.9735 24.8783 15.7065 24.5803 15.3789 24.3613C14.7322 23.9033 13.9339 23.7105 13.1489 23.8228C12.955 23.859 12.7657 23.9043 12.5809 23.9586C12.3974 24.0325 12.2233 24.1277 12.062 24.242C12.2585 24.2997 12.4382 24.3145 12.6178 24.3663C12.7942 24.3912 12.9668 24.424 13.1353 24.465C13.7934 24.6067 14.448 24.7639 15.0987 24.9364C15.4336 25.0251 15.7656 25.1358 16.155 25.2278Z" fill="#222222"/>
</g>
</g>
<path fill-rule="evenodd" clip-rule="evenodd" d="M88.922 17.7445C87.8761 19.6623 87.1756 21.4974 86.4738 23.1523C86.1237 23.978 85.8414 24.6902 85.6468 25.1955C85.5495 25.4481 85.4741 25.6489 85.4233 25.7861C85.3979 25.8547 85.3785 25.9074 85.3657 25.9428L85.3512 25.9826L85.3469 25.9947L84.9633 27.0651L84.3825 26.0883L84.3783 26.0811L84.3647 26.0585L84.3109 25.9693C84.2636 25.8913 84.1941 25.7776 84.106 25.6358C83.9298 25.352 83.6796 24.9564 83.384 24.5097C82.7894 23.611 82.0244 22.5258 81.3148 21.7265C80.0083 20.2547 78.4949 18.9847 76.9727 17.7445L77.1075 17.6033C79.1361 18.5064 81.0432 19.8569 82.2825 21.253C83.0438 22.1107 83.6755 23.0099 84.277 23.9188C84.4419 24.168 84.5929 24.4016 84.7254 24.6096C84.9179 24.115 85.1766 23.4688 85.4881 22.7343C86.1978 21.0607 87.018 19.446 88.119 17.6033C88.7133 16.6085 90.1607 14.2364 91.3349 12.4322C91.3567 12.3986 91.3785 12.3651 91.4004 12.3315C92.095 11.2649 93.2234 9.5887 94.1905 8.73779V8.9533C93.0153 10.5006 90.1167 15.5536 88.922 17.7445Z" fill="#222222"/>
<path fill-rule="evenodd" clip-rule="evenodd" d="M85.559 35.2043C94.494 35.2043 101.737 27.5987 101.737 18.6638C101.737 9.72881 94.494 2.12039 85.559 2.12039C76.6241 2.12039 69.3809 9.72881 69.3809 18.6638C69.3809 27.5987 76.6241 35.2043 85.559 35.2043ZM85.559 35.8419C95.0463 35.8419 102.737 28.151 102.737 18.6638C102.737 9.17652 95.0463 1.4856 85.559 1.4856C76.0718 1.4856 68.3809 9.17652 68.3809 18.6638C68.3809 28.151 76.0718 35.8419 85.559 35.8419Z" fill="#222222"/>
<defs>
<clipPath id="clip0_168_884">
<rect width="79" height="52" fill="white"/>
</clipPath>
</defs>
</svg>
