<svg width="81" height="63" viewBox="0 0 81 63" fill="none" xmlns="http://www.w3.org/2000/svg">
<path d="M6.98633 25.7513C12.3912 25.1628 25.4355 20.2166 34.9629 18.217C35.615 18.0332 36.2648 17.8413 36.9121 17.6411L37.8966 17.3376C38.2983 17.196 38.7368 17.1966 39.1381 17.3392C39.5165 17.527 39.8232 17.8319 40.0118 18.208L40.5027 19.1127L41.4628 20.9041C42.7407 23.2945 44.4996 27.4258 44.8721 28.5231C45.2249 29.2449 44.7849 30.5542 45.1146 31.2861C47.0204 35.5177 49.6317 38.9519 50.7403 43.4584C51.0325 44.7869 51.2789 46.1139 51.6039 47.4159C51.758 48.0642 51.9781 48.7076 52.0928 49.4062C52.1798 49.7647 52.1947 50.1368 52.1365 50.5011C52.0783 50.8653 51.9483 51.2146 51.7537 51.5288C51.5172 51.8091 51.2242 52.0372 50.8938 52.1983C50.5632 52.3593 50.2023 52.4499 49.8343 52.4641C49.1393 52.5466 48.4652 52.5314 47.8005 52.637C46.457 52.8304 45.1621 53.2736 43.9838 53.9433C45.1258 53.183 46.4105 52.6591 47.761 52.4031C48.4375 52.2627 49.1329 52.2451 49.7856 52.1352C50.0992 52.1128 50.4046 52.0252 50.682 51.878C50.9592 51.7308 51.2022 51.5272 51.3952 51.2805C51.6997 50.7351 51.7739 50.0919 51.6012 49.4922C51.4784 48.857 51.2412 48.2203 51.0612 47.5583C50.6903 46.245 50.402 44.9184 50.0727 43.6139C48.9187 39.1675 46.439 35.4506 44.4996 31.2861C44.1637 30.565 44.7394 29.2339 44.3807 28.5231C43.2338 26.08 42.011 23.6685 40.7656 21.2657L39.8294 19.4641C39.5066 18.8833 39.2371 18.1649 38.8473 18.0093C38.4779 17.8241 37.7658 18.1443 37.118 18.3146C36.4632 18.5094 35.6232 18.7457 34.9629 18.9215C27.8954 20.2166 12.4449 25.4969 6.98633 25.7513Z" fill="#222222"/>
<path d="M7.82199 50.3208C5.42938 45.4258 3.56725 40.2922 2.26696 35.0063C1.97472 33.6778 1.72836 32.3508 1.40329 31.0488C1.24918 30.4005 1.02914 29.7571 0.914387 29.0585C0.82743 28.7 0.812549 28.3279 0.870725 27.9636C0.928901 27.5994 1.0589 27.2501 1.25348 26.9359C1.48999 26.6556 1.78297 26.4275 2.11346 26.2664C4.548 25.0808 6.98562 26.9987 9.74555 26.5867C6.98562 27.6137 4.68669 25.3332 2.32525 26.5867C2.04802 26.7339 1.80499 26.9375 1.61201 27.1842C1.30748 27.7295 1.23331 28.3728 1.40599 28.9725C1.52886 29.6077 1.766 30.2444 1.94606 30.9064C2.31689 32.2197 2.60519 33.5463 2.93457 34.8508C4.28837 40.0671 6.19638 45.1259 8.6265 49.9416C10.3507 53.6145 12.0656 59.0485 15.5952 61.4197C11.516 60.7244 9.37978 53.532 7.82199 50.3208Z" fill="#222222"/>
<path d="M10.9648 60.4782C11.3987 61.1161 12.0324 61.594 12.7676 61.8375C13.4913 62.082 14.2489 62.2137 15.0131 62.2279C19.6339 62.2334 27.2829 58.3622 31.6975 57.0832C34.7089 56.3011 37.7476 55.562 40.6882 54.5991C42.1679 54.1442 43.616 53.593 45.0227 52.9489C46.4399 52.3122 47.7935 51.5448 49.066 50.6565C47.8879 51.6889 46.5975 52.5877 45.2193 53.3367C43.8273 54.0654 42.3886 54.7021 40.9123 55.2428C37.9455 56.2856 34.932 57.0869 31.9251 57.9384C27.4186 59.1362 19.6707 62.9679 14.9823 62.6496C14.1854 62.5808 13.4054 62.381 12.674 62.0589C11.939 61.7417 11.3357 61.1838 10.9648 60.4782Z" fill="#222222"/>
<path d="M44.0626 27.016C44.3726 27.2691 44.597 27.6125 44.7054 27.9993C44.841 28.3645 44.9502 28.7391 45.0321 29.1202C45.165 29.8916 45.2265 30.6739 45.2156 31.4572C45.1347 32.2365 44.9821 33.007 44.7598 33.7586C44.6276 34.1257 44.4772 34.4858 44.3088 34.8377C44.1253 35.1815 43.9144 35.51 43.6786 35.8199C43.7424 35.4323 43.8467 35.0707 43.8993 34.6939C43.9841 34.3311 44.0507 33.9644 44.0986 33.5949C44.2434 32.8746 44.3215 32.1424 44.332 31.4081C44.4086 30.6776 44.4177 29.9417 44.3591 29.2101C44.3507 28.8401 44.3207 28.4704 44.2928 28.0957C44.294 27.723 44.2156 27.3549 44.0626 27.016Z" fill="#222222"/>
<path d="M8.84852 50.2971C8.44197 50.058 8.11259 49.6688 7.90502 49.1826C7.67133 48.7348 7.46561 48.2654 7.28923 47.7783C6.96955 46.7815 6.72829 45.7463 6.56876 44.686C6.48942 43.608 6.49323 42.5181 6.58007 41.4307C6.64923 40.8919 6.74062 40.3564 6.85401 39.826C6.98643 39.3016 7.15312 38.7889 7.35215 38.2929C7.36497 38.8369 7.32614 39.3592 7.34928 39.8848C7.33287 40.4022 7.33792 40.919 7.36464 41.4333C7.35869 42.4529 7.43088 43.4665 7.58008 44.4606C7.65361 45.4715 7.80474 46.4672 8.03153 47.4349C8.12224 47.9313 8.23728 48.4202 8.35109 48.9164C8.43152 49.4197 8.60102 49.8904 8.84852 50.2971Z" fill="#222222"/>
<path fill-rule="evenodd" clip-rule="evenodd" d="M45.6232 12.8546C48.7897 13.7906 51.5742 16.9365 52.1734 22.3092C52.3874 22.9882 52.5171 23.6995 52.5517 24.4332C52.5518 24.4355 52.5519 24.4377 52.552 24.44H52.7318C52.7319 24.4377 52.732 24.4355 52.7321 24.4332C52.7667 23.6995 52.8964 22.9882 53.1105 22.3092C54.0206 16.5264 56.4942 13.7906 59.6607 12.8546C62.209 12.1013 62.209 12.7489 59.6607 11.9956C56.4942 11.0596 53.9971 9.55419 53.1105 2.13088C52.8964 1.45184 52.7667 0.740503 52.7321 0.00687388C52.732 0.00458285 52.7319 0.00229142 52.7318 0L52.552 -3.91128e-07C52.5519 0.00229142 52.5518 0.00458285 52.5517 0.00687408C52.5171 0.740503 52.3874 1.45184 52.1734 2.13088C51.2854 9.14406 48.7897 11.0596 45.6232 11.9956C43.0748 12.7489 43.0748 12.1013 45.6232 12.8546ZM46.9153 12.4251C49.5052 13.4587 52.1893 16.1162 52.6419 21.0378C53.5451 15.7061 55.7787 13.4587 58.3686 12.4251C55.7787 11.3915 53.5451 9.96432 52.6419 3.40228C51.7374 9.55419 49.5052 11.3915 46.9153 12.4251Z" fill="#222222"/>
<path fill-rule="evenodd" clip-rule="evenodd" d="M67.193 21.2748C70.8262 22.2226 71.7645 23.1421 72.452 28.5824C72.6976 29.2699 72.8464 29.9902 72.8861 30.7331C72.8862 30.7354 72.8863 30.7377 72.8865 30.74H73.0927C73.0929 30.7377 73.093 30.7354 73.0931 30.7331C73.1328 29.9902 73.2816 29.2699 73.5272 28.5824C74.5715 22.7269 75.1538 22.2226 78.787 21.2748C81.711 20.512 81.711 21.1677 78.787 20.405C75.1538 19.4572 74.5445 20.6743 73.5272 13.1577C73.2816 12.4701 73.1328 11.7498 73.0931 11.007C73.093 11.0046 73.0929 11.0023 73.0927 11L72.8865 11C72.8863 11.0023 72.8862 11.0046 72.8861 11.007C72.8464 11.7498 72.6976 12.4701 72.452 13.1577C71.4331 20.259 70.8262 19.4572 67.193 20.405C64.269 21.1677 64.269 20.512 67.193 21.2748ZM68.6756 20.8399C71.6472 21.8865 72.4703 22.3116 72.9896 27.295C74.0259 21.8963 74.3328 21.8865 77.3045 20.8399C74.3328 19.7933 74.0259 21.0896 72.9896 14.4451C71.9517 20.6743 71.6472 19.7933 68.6756 20.8399Z" fill="#222222"/>
<path fill-rule="evenodd" clip-rule="evenodd" d="M59.6636 32.6667L59.8711 29H60.6636V32.6667H59.6636Z" fill="#222222"/>
<path fill-rule="evenodd" clip-rule="evenodd" d="M61.4539 34.0728L65.1206 34.4068L65.1206 35.0728L61.4539 35.0728L61.4539 34.0728Z" fill="#222222"/>
<path fill-rule="evenodd" clip-rule="evenodd" d="M59.6636 40V36.3334H60.6636L60.4969 40H59.6636Z" fill="#222222"/>
<path fill-rule="evenodd" clip-rule="evenodd" d="M54.9998 34.3677L58.6665 34.0728L58.6665 35.0728L54.9998 35.0728L54.9998 34.3677Z" fill="#222222"/>
</svg>
