<svg width="11" height="22" viewBox="0 0 11 22" fill="none" xmlns="http://www.w3.org/2000/svg">
<path d="M8.45101 20.7392C8.76726 21.1345 9.34411 21.1986 9.73943 20.8823C10.1348 20.5661 10.1989 19.9892 9.88259 19.5939L8.45101 20.7392ZM1.83346 10.9999L1.11767 10.4272L0.659561 10.9999L1.11767 11.5725L1.83346 10.9999ZM9.88259 2.40577C10.1989 2.0105 10.1348 1.43373 9.73944 1.11749C9.34411 0.801235 8.76726 0.865219 8.45101 1.26067L9.88259 2.40577ZM9.88259 19.5939L2.54925 10.4272L1.11767 11.5725L8.45101 20.7392L9.88259 19.5939ZM2.54925 11.5725L9.88259 2.40577L8.45101 1.26067L1.11767 10.4272L2.54925 11.5725Z" fill="white"/>
</svg>
