<svg width="42" height="42" viewBox="0 0 42 42" fill="none" xmlns="http://www.w3.org/2000/svg">
<path d="M29.8824 35.8351C26.8351 38.8409 19.1039 35.944 12.6141 29.3648C6.1243 22.7855 3.33358 15.0153 6.38081 12.0095L8.38719 10.0304C9.7723 8.66411 12.0388 8.716 13.4497 10.1463L16.5151 13.254C17.9259 14.6842 17.9468 16.9513 16.5616 18.3176L16.1307 18.7426C15.3829 19.4803 15.302 20.678 15.9864 21.5191C16.6466 22.3304 17.3588 23.1388 18.1316 23.9223C18.9044 24.7058 19.703 25.429 20.5052 26.1002C21.3368 26.7961 22.5355 26.7316 23.2833 25.9939L23.7143 25.5689C25.0994 24.2026 27.366 24.2545 28.7768 25.6847L31.8422 28.7924C33.253 30.2227 33.2739 32.4898 31.8888 33.856L29.8824 35.8351Z" stroke="white" stroke-width="1.5"/>
<path d="M24.4156 5.12847C27.5526 5.51523 30.4936 6.8617 32.8362 8.98369C35.1788 11.1057 36.8086 13.8996 37.5027 16.9832" stroke="white" stroke-width="1.5" stroke-linejoin="round"/>
<path d="M25.1379 11.8299C27.1757 12.7227 28.8618 14.2632 29.9345 16.2124" stroke="white" stroke-width="1.5" stroke-linejoin="round"/>
</svg>
