<svg width="38" height="30" viewBox="0 0 38 30" fill="none" xmlns="http://www.w3.org/2000/svg">
<g clip-path="url(#clip0_168_930)">
<mask id="mask0_168_930" style="mask-type:luminance" maskUnits="userSpaceOnUse" x="0" y="0" width="38" height="30">
<path d="M37.4102 0.599609H0.599609V29.4996H37.4102V0.599609Z" fill="white"/>
</mask>
<g mask="url(#mask0_168_930)">
<path opacity="0.45" d="M2.69961 29.4996L1.99961 28.6996C5.39961 26.3663 8.36628 23.6996 10.8996 20.6996C13.4996 17.6996 14.7996 14.9663 14.7996 12.4996L13.5996 13.3996C11.7329 14.6663 10.0663 15.2996 8.59961 15.2996C6.26628 15.2996 4.33294 14.6996 2.79961 13.4996C1.33294 12.2329 0.599609 10.3996 0.599609 7.99961C0.599609 6.06628 1.36628 4.36628 2.89961 2.89961C4.43294 1.36628 6.36628 0.599609 8.69961 0.599609C11.0996 0.599609 13.0663 1.33294 14.5996 2.79961C16.1996 4.26628 16.9996 6.26628 16.9996 8.79961C17.2663 16.2663 12.4996 23.1663 2.69961 29.4996ZM23.0996 29.4996L22.2996 28.6996C25.6329 26.4329 28.6329 23.7663 31.2996 20.6996C33.8996 17.6996 35.1996 14.9663 35.1996 12.4996C35.1329 12.4996 34.6996 12.7663 33.8996 13.2996C33.1663 13.8329 32.3329 14.2996 31.3996 14.6996C30.5329 15.0996 29.7329 15.2996 28.9996 15.2996C26.6663 15.2996 24.7329 14.6996 23.1996 13.4996C21.6663 12.2329 20.8996 10.3996 20.8996 7.99961C20.8996 6.06628 21.6663 4.36628 23.1996 2.89961C24.7996 1.36628 26.7663 0.599609 29.0996 0.599609C31.4329 0.599609 33.3996 1.33294 34.9996 2.79961C36.5996 4.26628 37.3996 6.26628 37.3996 8.79961C37.6663 16.2663 32.8996 23.1663 23.0996 29.4996Z" fill="white"/>
</g>
</g>
<defs>
<clipPath id="clip0_168_930">
<rect width="38" height="30" fill="white"/>
</clipPath>
</defs>
</svg>
