<svg width="160" height="28" viewBox="0 0 160 28" fill="none" xmlns="http://www.w3.org/2000/svg">
<g clip-path="url(#clip0_181_355)">
<path d="M3.6748 29.6641C25.867 19.4586 47.4175 12.2997 71.7279 7.91338C96.1417 3.62891 119.879 0.436664 144.589 2.68559C146.31 2.76812 147.995 3.17528 149.538 3.88209C150.407 4.27369 151.181 4.82462 151.812 5.50152C152.206 5.92127 152.49 6.41982 152.642 6.95836C152.794 7.4969 152.809 8.0609 152.686 8.60646C152.551 9.12257 152.305 9.6084 151.962 10.0347C151.619 10.4609 151.187 10.8187 150.691 11.0865C149.89 11.5127 149.022 11.8178 148.118 11.9903C146.532 12.2782 145.018 12.5455 143.459 12.7728C137.285 13.5455 131.065 13.9547 124.836 13.9978C118.653 14.1126 112.5 14.1304 106.391 14.5176C103.342 14.7346 100.297 15.0089 97.2952 15.4922C95.7887 15.7124 94.2946 15.982 92.8182 16.3224C92.0776 16.4832 91.3292 16.6204 90.606 16.8366L88.9293 17.2953C88.6362 17.277 88.8637 17.551 88.9477 17.6501C89.4045 18.031 89.9498 18.3099 90.5419 18.4654C91.9577 18.8114 93.4242 18.9484 94.8875 18.8716L104.144 18.8837L122.656 18.8872C134.998 18.9241 147.339 18.9024 159.679 18.7515C147.339 18.9076 135.001 19.1929 122.663 19.5368L104.157 20.0007L94.9031 20.2431C93.2826 20.3659 91.6521 20.2512 90.0718 19.9033C89.1668 19.6965 88.3377 19.2715 87.6691 18.6715C87.2262 18.2423 86.9019 17.7204 86.7237 17.1501C86.6862 16.904 86.4035 16.5295 86.5766 16.3732L87.3703 16.0237L90.1127 15.2244C90.8554 14.9871 91.6196 14.8315 92.3782 14.6523C93.8919 14.2744 95.4203 13.9692 96.959 13.7145C100.03 13.1628 103.13 12.8281 106.228 12.5549C112.427 12.0557 118.623 11.9399 124.774 11.7357C130.889 11.6049 136.989 11.1244 143.042 10.297C144.528 10.0632 146.045 9.77603 147.483 9.50114C148.89 9.20274 149.869 8.66732 149.935 8.04371C150.127 7.58831 149.441 6.78389 148.231 6.24541C146.996 5.69791 145.649 5.3972 144.278 5.36279C119.821 2.91214 95.9419 6.05379 71.6619 9.82181C47.267 13.424 25.947 19.7425 3.6748 29.6641Z" fill="#222222"/>
</g>
<defs>
<clipPath id="clip0_181_355">
<rect width="160" height="28" fill="white"/>
</clipPath>
</defs>
</svg>
