<svg width="11" height="23" viewBox="0 0 11 23" fill="none" xmlns="http://www.w3.org/2000/svg">
<path d="M8.35176 22.1798C8.68033 22.6162 9.27966 22.6869 9.69038 22.3378C10.1011 21.9887 10.1677 21.3519 9.83912 20.9155L8.35176 22.1798ZM1.47639 11.4286L0.732714 10.7964L0.256752 11.4286L0.732714 12.0607L1.47639 11.4286ZM9.83912 1.94157C10.1677 1.50523 10.1011 0.868544 9.69039 0.519438C9.27966 0.17033 8.68033 0.240961 8.35176 0.677496L9.83912 1.94157ZM9.83912 20.9155L2.22007 10.7964L0.732714 12.0607L8.35176 22.1798L9.83912 20.9155ZM2.22007 12.0607L9.83912 1.94157L8.35176 0.677496L0.732714 10.7964L2.22007 12.0607Z" fill="#222222"/>
</svg>
