<svg width="99" height="63" viewBox="0 0 99 63" fill="none" xmlns="http://www.w3.org/2000/svg">
<path d="M37.7098 16.5975C41.4594 16.2675 42.9482 15.4474 47.8686 14.0362C48.4829 13.8631 49.0949 13.6823 49.7046 13.4938L50.6318 13.208C51.0102 13.0745 51.4232 13.0751 51.8012 13.2094C52.1577 13.3863 52.4465 13.6735 52.6242 14.0277L53.0865 14.8799L53.9908 16.5672C55.1945 18.8187 56.38 21.0838 57.497 23.3863C59.7506 27.9969 61.5045 32.8322 62.7292 37.811C63.0045 39.0623 63.2365 40.3122 63.5427 41.5385C63.6879 42.1492 63.8951 42.7551 64.0032 43.4132C64.0851 43.7509 64.0991 44.1013 64.0443 44.4444C63.9895 44.7875 63.8671 45.1165 63.6838 45.4125C63.4611 45.6765 63.1851 45.8913 62.8738 46.043C62.5624 46.1947 62.2225 46.2801 61.8759 46.2934C61.2213 46.3711 60.5864 46.3567 59.9602 46.4563C58.6948 46.6384 57.4752 47.0559 56.3654 47.6867C57.441 46.9705 58.6511 46.4771 59.9231 46.2359C60.5602 46.1037 61.2152 46.0872 61.83 45.9836C62.1254 45.9625 62.4131 45.88 62.6743 45.7414C62.9355 45.6027 63.1644 45.411 63.3461 45.1786C63.633 44.6649 63.7028 44.059 63.5402 43.4941C63.4244 42.8959 63.2011 42.2962 63.0315 41.6727C62.6822 40.4356 62.4107 39.1861 62.1004 37.9574C60.8253 33.0442 59.0281 28.2794 56.7392 23.7435C55.6589 21.4423 54.5072 19.171 53.3341 16.9078L52.4524 15.2109C52.1483 14.6638 51.8945 13.9871 51.5274 13.8406C51.1793 13.6662 50.5087 13.9678 49.8985 14.1281C49.2818 14.3117 48.6624 14.4861 48.0406 14.6517C43.0665 15.9664 37.02 17.9773 37.7098 16.5975Z" fill="#222222"/>
<path d="M23.5654 46.4774C24.2601 47.5539 24.9842 48.5988 25.6393 49.6797C25.9707 50.2128 26.255 50.7866 26.6462 51.3267C26.8283 51.6227 27.0672 51.8794 27.3495 52.0821C27.0062 51.5787 26.2875 50.045 25.9642 49.4855C25.3318 48.3664 24.7662 47.2195 24.1122 46.134C23.2912 44.7507 21.5055 42.2945 20.7807 40.8603L20.0632 40.6259C20.8631 42.1794 22.6536 44.9847 23.5654 46.4774Z" fill="#222222"/>
<path d="M25.2314 51.7229C25.6402 52.3238 26.237 52.7738 26.9295 53.0032C27.6112 53.2335 28.3247 53.3576 29.0446 53.3709C30.4995 53.3727 31.9526 53.2646 33.3912 53.0478C36.2854 52.6393 41.988 51.4567 44.7943 50.6437C47.6307 49.9071 50.4928 49.2109 53.2625 48.3039C54.6563 47.8755 56.0203 47.3563 57.3452 46.7496C58.68 46.15 59.9551 45.4271 61.1536 44.5905C60.0439 45.5629 58.8285 46.4095 57.5304 47.1149C56.2193 47.8013 54.8641 48.401 53.4736 48.9103C50.6792 49.8925 47.6265 50.9209 44.7943 51.7229C41.9373 52.4823 36.3279 53.42 33.3912 53.7682C31.9132 53.9261 30.5277 54.022 29.0446 53.9214C28.294 53.8565 27.3696 53.6743 26.6808 53.3709C25.9885 53.0722 25.5808 52.3875 25.2314 51.7229Z" fill="#222222"/>
<path d="M55.2496 17.239C56.903 14.6864 57.2676 12.5956 58.1234 11.2701C58.3996 10.7385 58.6685 10.2025 58.9302 9.66216L59.3289 8.84115C59.479 8.4934 59.7521 8.22455 60.1022 8.0799C60.47 7.98151 60.8755 8.01077 61.2577 8.16323L62.2003 8.50733L64.0593 9.19597C66.538 10.1168 69.0147 11.0598 71.4743 12.0758C76.4104 14.0992 81.1847 16.6187 85.7168 19.5918C86.8343 20.3602 87.9222 21.1558 89.0415 21.8851C89.594 22.2531 90.1841 22.577 90.7475 23.005C91.0541 23.2074 91.3255 23.4638 91.5459 23.7594C91.7662 24.055 91.9314 24.3841 92.0317 24.7278C92.082 25.073 92.0604 25.4156 91.9683 25.7335C91.876 26.0514 91.7154 26.3377 91.4964 26.5738C91.1222 27.0595 90.6922 27.4625 90.3531 27.9461C89.6536 28.909 89.1603 30.0205 88.8991 31.2219C89.0739 29.9781 89.5041 28.8154 90.1638 27.8034C90.4857 27.2879 90.9059 26.8483 91.2345 26.369C91.4138 26.1605 91.5421 25.9104 91.6109 25.6351C91.6797 25.3598 91.6875 25.0653 91.6338 24.7708C91.4391 24.1946 91.0321 23.6901 90.5023 23.3683C89.9785 22.9905 89.3825 22.6818 88.8042 22.3201C87.6485 21.6107 86.5347 20.8412 85.411 20.1127C80.8947 17.2221 76.1446 14.7843 71.2409 12.8404C68.8066 11.8015 66.3475 10.8318 63.8803 9.88214L62.029 9.17149C61.4191 8.95536 60.7454 8.60822 60.3933 8.73653C60.0331 8.83131 59.8157 9.49702 59.5327 10.0163C59.2626 10.5574 58.984 11.0934 58.6971 11.6242C58.4102 12.155 56.7814 15.9748 55.2496 17.239Z" fill="#222222"/>
<path d="M66.3331 51.6902C67.5969 52.0529 68.8564 52.3723 70.0975 52.764C70.715 52.9518 71.3319 53.2011 71.9941 53.3553C72.3357 53.4608 72.6855 53.4994 73.0234 53.469C72.4203 53.3114 70.7987 52.6182 70.1668 52.4051C68.9123 51.9697 67.681 51.4696 66.4374 51.0736C64.0181 50.3034 60.9002 49.5371 59.2469 49.241L56.5586 48.6982C58.2486 49.3536 64.6147 51.1539 66.3331 51.6902Z" fill="#222222"/>
<path d="M71.3562 54.5782C72.0755 54.7669 72.8062 54.7188 73.4351 54.441C74.0575 54.1711 74.6215 53.7999 75.1069 53.3407C76.0691 52.3934 76.9479 51.3642 77.7359 50.2621C79.3419 48.0658 82.2236 43.4521 83.469 41.0066C84.7914 38.5994 86.161 36.206 87.3119 33.7133C87.9121 32.4801 88.4246 31.1975 88.8459 29.8741C89.2791 28.5496 89.5805 27.1708 89.7464 25.7556C89.7407 27.2157 89.5712 28.6494 89.2413 30.0301C88.8888 31.4048 88.4423 32.7427 87.9048 34.035C86.7938 36.6008 85.7119 39.4586 84.4412 41.9127C83.1222 44.3506 80.0529 48.8123 78.3737 50.9906C77.5157 52.0738 76.5401 52.9088 75.4854 53.7995C74.9412 54.2397 74.2146 54.4372 73.5328 54.6565C72.8522 54.8815 72.0839 54.8539 71.3562 54.5782Z" fill="#222222"/>
<path fill-rule="evenodd" clip-rule="evenodd" d="M21.2872 19.6527C20.2413 21.5705 19.5408 23.4056 18.8391 25.0605C18.489 25.8862 18.2066 26.5984 18.012 27.1037C17.9147 27.3563 17.8394 27.5571 17.7885 27.6943C17.7631 27.7629 17.7438 27.8156 17.7309 27.851L17.7165 27.8908L17.7121 27.9029L17.3285 28.9733L16.7477 27.9965L16.7435 27.9893L16.7299 27.9667L16.6761 27.8775C16.6288 27.7995 16.5593 27.6858 16.4713 27.544C16.2951 27.2602 16.0448 26.8646 15.7493 26.4179C15.1547 25.5192 14.3896 24.434 13.68 23.6347C12.3736 22.1629 10.8601 20.8929 9.33789 19.6527L9.47271 19.5115C11.5013 20.4146 13.4084 21.7651 14.6477 23.1612C15.409 24.0189 16.0408 24.9181 16.6422 25.827C16.8071 26.0762 16.9581 26.3098 17.0907 26.5178C17.2832 26.0232 17.5419 25.377 17.8533 24.6425C18.563 22.9689 19.3833 21.3542 20.4842 19.5115C21.0785 18.5167 22.5259 16.1446 23.7001 14.3404C23.7219 14.3068 23.7438 14.2733 23.7656 14.2397C24.4602 13.1731 25.5886 11.4969 26.5557 10.646V10.8615C25.3806 12.4088 22.4819 17.4618 21.2872 19.6527Z" fill="#222222"/>
<path fill-rule="evenodd" clip-rule="evenodd" d="M17.9243 37.1125C26.8592 37.1125 34.1024 29.5069 34.1024 20.572C34.1024 11.637 26.8592 4.02859 17.9243 4.02859C8.9893 4.02859 1.74609 11.637 1.74609 20.572C1.74609 29.5069 8.9893 37.1125 17.9243 37.1125ZM17.9243 37.7501C27.4115 37.7501 35.1024 30.0592 35.1024 20.572C35.1024 11.0847 27.4115 3.3938 17.9243 3.3938C8.43702 3.3938 0.746094 11.0847 0.746094 20.572C0.746094 30.0592 8.43702 37.7501 17.9243 37.7501Z" fill="#222222"/>
</svg>
